<svg width="41" height="20" viewBox="0 0 41 20" fill="none" xmlns="http://www.w3.org/2000/svg">
<path d="M0.368 20L0.704 0.559999H5.312L7.448 11.864L9.752 0.559999H14.192L14.528 20H11.48L11.12 7.064L8.864 20H6.152L3.752 6.968L3.464 20H0.368ZM17.1464 20V6.128H21.0584V20H17.1464ZM17.1224 3.776V1.064H21.0584V3.776H17.1224ZM23.522 20V6.128H27.434V8.432C27.882 7.632 28.33 7.024 28.778 6.608C29.226 6.176 29.77 5.96 30.41 5.96C30.538 5.96 30.65 5.968 30.746 5.984C30.842 5.984 30.93 6 31.01 6.032V9.92C30.834 9.84 30.634 9.776 30.41 9.728C30.202 9.664 29.978 9.632 29.738 9.632C29.29 9.632 28.874 9.752 28.49 9.992C28.106 10.232 27.754 10.56 27.434 10.976V20H23.522ZM32.7095 20V6.128H36.6215V8.432C37.0695 7.632 37.5175 7.024 37.9655 6.608C38.4135 6.176 38.9575 5.96 39.5975 5.96C39.7255 5.96 39.8375 5.968 39.9335 5.984C40.0295 5.984 40.1175 6 40.1975 6.032V9.92C40.0215 9.84 39.8215 9.776 39.5975 9.728C39.3895 9.664 39.1655 9.632 38.9255 9.632C38.4775 9.632 38.0615 9.752 37.6775 9.992C37.2935 10.232 36.9415 10.56 36.6215 10.976V20H32.7095Z" fill="#00ADB5"/>
</svg>
